<svg xmlns="http://www.w3.org/2000/svg" version="1.1" xmlns:xlink="http://www.w3.org/1999/xlink" xmlns:svgjs="http://svgjs.com/svgjs" x="0" y="0" viewBox="0 0 512 512" style="enable-background:new 0 0 512 512" xml:space="preserve"><g><path d="M499.292 248.5h-7.251a34.844 34.844 0 0 0-20.042 6.313v-16.449c0-18.779-15.277-34.056-34.056-34.056H374.89a7.5 7.5 0 0 0 0 15h63.052c10.507 0 19.056 8.548 19.056 19.056v53.269H187.419v-53.269c0-10.508 8.548-19.056 19.056-19.056H339.89a7.5 7.5 0 0 0 0-15H119.43c6.021-8.427 8.375-19.38 5.492-30.143a7.502 7.502 0 0 0-14.49 3.882c2.977 11.108-3.639 22.567-14.747 25.543-11.114 2.979-22.567-3.64-25.543-14.747L55.72 135.019c-2.977-11.108 3.639-22.567 14.748-25.543 11.134-2.982 22.56 3.612 25.542 14.747l5.289 19.739a7.502 7.502 0 0 0 14.49-3.882l-5.289-19.739c-5.129-19.14-24.769-30.484-43.914-25.354a35.862 35.862 0 0 0-11.583 5.45v-3.644c0-19.322-15.72-35.042-35.042-35.042H12.71C5.701 61.75 0 67.452 0 74.459v363.082c0 7.007 5.701 12.708 12.708 12.708h29.585c7.007 0 12.708-5.701 12.708-12.708v-69.155h8.492a7.5 7.5 0 0 0 0-15h-8.492v-46.754h401.995v46.754H98.495a7.5 7.5 0 0 0 0 15h358.503v69.155c0 7.007 5.701 12.708 12.708 12.708h29.585c7.007 0 12.708-5.701 12.708-12.708V261.208c.001-7.007-5.7-12.708-12.707-12.708zm-332.487-29.192h11.457a33.866 33.866 0 0 0-5.843 19.056v53.269H147.75v-53.269c0-10.508 8.548-19.056 19.055-19.056zM55.653 192.726a35.663 35.663 0 0 0 6.988 13.551 33.963 33.963 0 0 0-7.639 3.875v-19.854zM40.002 435.25H15V76.75h4.96c11.051 0 20.042 8.991 20.042 20.042zm15-196.886c0-10.508 8.548-19.056 19.056-19.056h64.535a33.856 33.856 0 0 0-5.843 19.056v53.269H55.002zM497 435.25h-25.002V283.542c0-11.051 8.991-20.042 20.042-20.042H497z" fill="currentColor" data-original="#000000"/></g></svg>