<svg xmlns="http://www.w3.org/2000/svg" version="1.1" xmlns:xlink="http://www.w3.org/1999/xlink" xmlns:svgjs="http://svgjs.com/svgjs" x="0" y="0" viewBox="0 0 511.999 511" style="enable-background:new 0 0 512 512" xml:space="preserve" class=""><g><path d="M504.453 402.879h-21.297l-37.55-82.613V305.3h16.597a7.544 7.544 0 0 0 7.547-7.543v-24.145c0-8.597-6.996-15.59-15.594-15.59h-22.11c8.923-8.168 13.56-19.23 13.56-32.699 0-31.875-18.43-53.746-26.352-61.668a7.544 7.544 0 0 0-10.668 0c-4.39 4.387-8.09 9.285-11.207 14.496a48.39 48.39 0 0 0-7.602-.609c-21.363 0-39.492 14.09-45.59 33.46-4.324-5.655-11.136-9.32-18.792-9.32h-11.461l-13.184-29.66V140.34c28.078-9.805 48.285-36.535 48.285-67.914C349.035 32.766 316.77.5 277.11.5s-71.925 32.266-71.925 71.926c0 31.379 20.207 58.113 48.285 67.914v36.7c0 3.327.687 6.558 2.039 9.6l6.687 15.044h-105.8c-.848 0-1.692.144-2.493.425L59.59 235.145a27.657 27.657 0 0 0-18.121 18.14L1.23 382.047c-3.507 11.223.657 23.812 10.204 30.691a27.727 27.727 0 0 0 7.953 3.965c11.11 3.469 23.535-.52 30.46-9.883a27.897 27.897 0 0 0 4.192-8.27l35.895-114.855 10.632-3.273v17.336a7.544 7.544 0 0 0 7.547 7.543h16.598v14.965l-37.55 82.613H65.858a7.546 7.546 0 0 0 0 15.09h74.442c4.168 0 7.543-3.38 7.543-7.547s-3.375-7.543-7.543-7.543h-12.426l33.379-73.434h153.078a7.546 7.546 0 0 0 0-15.09H139.797v-9.054H430.52v9.054h-80.98a7.54 7.54 0 0 0-7.544 7.543 7.544 7.544 0 0 0 7.543 7.547h59.524l33.378 73.434h-12.425c-4.168 0-7.547 3.375-7.547 7.543s3.379 7.547 7.547 7.547h74.437a7.544 7.544 0 1 0 0-15.09zM144.68 329.445 111.3 402.88h-7.566l33.38-73.434zm156.808-76.508-19.957-44.902 15.739-6.691 19.847 44.648c2.008 4.524-.351 9.914-5 11.547-4.137 1.457-8.851-.598-10.629-4.602zm53.492 5.086h-7.554a23.4 23.4 0 0 0 1.59-7.793 48.062 48.062 0 0 0 5.964 7.793zm59.004-77.597c6.91 8.695 16.532 24.48 16.532 44.898 0 24.188-22.149 30.48-33.813 32.117-.824-15.597-.648-53.054 17.281-77.015zm-24.207 12.203c.2 0 .399.012.598.016-9.242 23.968-9.523 50.476-8.84 64.32-14.05-3.664-24.453-16.457-24.453-31.64 0-18.028 14.668-32.696 32.695-32.696zm-64.382 24.144c4.714 0 8.55 3.836 8.55 8.551v24.145c0 1.804-.566 3.48-1.527 4.86.996-4.7.582-9.743-1.516-14.462l-10.261-23.094zM220.273 72.426c0-31.34 25.497-56.836 56.836-56.836s56.836 25.496 56.836 56.836-25.496 56.836-56.836 56.836-56.836-25.496-56.836-56.836zm56.836 71.926a71.84 71.84 0 0 0 8.551-.528v29.801c0 1.055.223 2.098.649 3.062l4.832 10.864-15.743 6.695-6.105-13.734a8.514 8.514 0 0 1-.734-3.473v-33.215c2.808.336 5.656.528 8.55.528zm10.121 113.664h-66.957v-41.243h48.63zm-129.55-41.243h47.504v41.243h-22.649l-18.383-10.461a7.537 7.537 0 0 0-5.953-.653l-57.34 17.645-8.687-24.824zm-80.965 58.63L39.637 394.05c-2.051 6.558-9.188 10.3-15.754 8.254-6.617-2.07-10.32-9.137-8.25-15.754L55.87 257.789a12.56 12.56 0 0 1 8.3-8.27c.095-.027.188-.058.278-.09l13.48-4.722 8.497 24.281c-3.871 1.192-8.32 1.969-9.711 6.414zm38.941 14.808v-14.43l43.864-13.5 17.285 9.84c1.68.953 3.652 1.012 5.535 1 2.191-.016 271.816-.008 271.816-.008.278 0 .504.227.504.504v16.598H115.656zm343.36 112.668-33.38-73.434h7.567l33.379 73.434zm0 0" fill="currentColor" data-original="#000000" class=""/><path d="M324.89 72.426c0-26.348-21.433-47.785-47.78-47.785s-47.782 21.437-47.782 47.785c0 26.347 21.434 47.781 47.781 47.781s47.782-21.434 47.782-47.781zm-80.472 0c0-18.028 14.664-32.696 32.691-32.696s32.696 14.668 32.696 32.696c0 18.027-14.668 32.691-32.696 32.691s-32.691-14.664-32.691-32.691zm0 0" fill="currentColor" data-original="#000000" class=""/><path d="M300.75 72.426c0-13.035-10.605-23.64-23.64-23.64s-23.641 10.605-23.641 23.64 10.605 23.64 23.64 23.64 23.641-10.605 23.641-23.64zm-32.191 0c0-4.715 3.836-8.551 8.55-8.551s8.551 3.836 8.551 8.55c0 4.716-3.836 8.552-8.55 8.552s-8.551-3.836-8.551-8.551zm0 0" fill="currentColor" data-original="#000000" class=""/></g></svg>