<svg xmlns="http://www.w3.org/2000/svg" version="1.1" xmlns:xlink="http://www.w3.org/1999/xlink" xmlns:svgjs="http://svgjs.com/svgjs" x="0" y="0" viewBox="0 0 496.941 496.941" style="enable-background:new 0 0 512 512" xml:space="preserve"><g><path d="M474.353 0H22.588C9.788 0 0 9.788 0 22.588v407.341c0 12.8 9.788 22.588 22.588 22.588h31.623v36.894c0 4.518 3.012 7.529 7.529 7.529h80.565c4.518 0 7.529-3.012 7.529-7.529v-36.894h198.023v36.894c0 4.518 3.012 7.529 7.529 7.529H435.2c4.518 0 7.529-3.012 7.529-7.529v-36.894h31.624c12.8 0 22.588-9.788 22.588-22.588V22.588c0-12.8-9.788-22.588-22.588-22.588zm-340.33 481.882H68.518v-29.365h65.506v29.365zm24.848-44.423H22.589c-3.765 0-7.529-3.012-7.529-7.529V22.588c0-4.518 3.765-7.529 7.529-7.529h136.282v422.4zm204.047 44.423v-29.365h64.753v29.365h-64.753zm118.964-51.953c0 4.518-3.765 7.529-7.529 7.529H338.071v-15.812c0-4.518-3.012-7.529-7.529-7.529s-7.529 3.012-7.529 7.529v15.812H173.929v-422.4h148.329v166.4c0 4.518 3.012 7.529 7.529 7.529s7.529-3.012 7.529-7.529v-166.4h137.035c4.518 0 7.529 3.765 7.529 7.529v407.342z" fill="currentColor" data-original="#000000"/><path d="M35.388 74.541h99.388c4.518 0 7.529-3.012 7.529-7.529 0-4.518-3.012-7.529-7.529-7.529H35.388c-4.518 0-7.529 3.012-7.529 7.529 0 4.517 3.012 7.529 7.529 7.529zM35.388 122.729h99.388c4.518 0 7.529-3.012 7.529-7.529 0-4.518-3.012-7.529-7.529-7.529H35.388c-4.518 0-7.529 3.012-7.529 7.529 0 4.518 3.012 7.529 7.529 7.529zM35.388 170.918h99.388c4.518 0 7.529-3.765 7.529-7.529 0-4.518-3.012-7.529-7.529-7.529H35.388c-4.518 0-7.529 3.012-7.529 7.529s3.012 7.529 7.529 7.529zM197.271 74.541h99.388c4.518 0 7.529-3.012 7.529-7.529 0-4.518-3.012-7.529-7.529-7.529h-99.388c-4.518 0-7.529 3.012-7.529 7.529-.001 4.517 3.011 7.529 7.529 7.529zM197.271 122.729h99.388c4.518 0 7.529-3.012 7.529-7.529 0-4.518-3.012-7.529-7.529-7.529h-99.388c-4.518 0-7.529 3.012-7.529 7.529-.001 4.518 3.011 7.529 7.529 7.529zM457.788 59.482H358.4c-4.518 0-7.529 3.012-7.529 7.529 0 4.518 3.012 7.529 7.529 7.529h99.388c4.518 0 7.529-3.012 7.529-7.529.001-4.517-3.764-7.529-7.529-7.529zM457.788 107.671H358.4c-4.518 0-7.529 3.012-7.529 7.529s3.012 7.529 7.529 7.529h99.388c4.518 0 7.529-3.012 7.529-7.529.001-4.518-3.764-7.529-7.529-7.529zM304.188 163.388c0-4.518-3.012-7.529-7.529-7.529h-99.388c-4.518 0-7.529 3.012-7.529 7.529s3.012 7.529 7.529 7.529h99.388c4.517.001 7.529-3.764 7.529-7.529zM457.788 155.859H358.4c-4.518 0-7.529 3.012-7.529 7.529s3.012 7.529 7.529 7.529h99.388c4.518 0 7.529-3.012 7.529-7.529s-3.764-7.529-7.529-7.529zM402.824 268.047h-20.329v-16.565c0-13.553-5.271-27.106-15.059-36.894-9.788-9.788-23.341-15.059-36.894-15.059-28.612 0-51.953 23.341-51.953 51.953v16.565H258.26c-4.518 0-7.529 3.012-7.529 7.529v109.929a20.244 20.244 0 0 0 20.329 20.329h119.718a20.244 20.244 0 0 0 20.329-20.329V275.576c-.754-4.517-4.519-7.529-8.283-7.529zm-110.683-16.565h.753c0-20.329 16.565-36.894 36.894-36.894 9.788 0 19.576 3.765 26.353 10.541 6.776 6.776 10.541 16.565 10.541 26.353v16.565h-74.541v-16.565zm97.882 139.294H270.306c-3.012 0-5.271-2.259-5.271-5.271v-102.4h129.506v102.4h.753c0 3.013-2.259 5.271-5.271 5.271zM129.506 262.776c-4.518 0-7.529 3.012-7.529 7.529v66.259c0 4.518 3.012 7.529 7.529 7.529 4.518 0 7.529-3.012 7.529-7.529v-66.259c0-3.764-3.764-7.529-7.529-7.529zM453.271 262.776c-4.518 0-7.529 3.012-7.529 7.529v66.259c0 4.518 3.012 7.529 7.529 7.529s7.529-3.012 7.529-7.529v-66.259c0-3.764-3.765-7.529-7.529-7.529z" fill="currentColor" data-original="#000000"/><path d="M330.541 329.035c-12.8 0-23.341 10.541-23.341 23.341s10.541 23.341 23.341 23.341 23.341-10.541 23.341-23.341c.753-12.8-9.788-23.341-23.341-23.341zm0 32.377c-4.518 0-8.282-3.765-8.282-8.282s3.765-8.282 8.282-8.282 8.282 3.765 8.282 8.282-3.011 8.282-8.282 8.282z" fill="currentColor" data-original="#000000"/></g></svg>