<svg xmlns="http://www.w3.org/2000/svg" version="1.1" xmlns:xlink="http://www.w3.org/1999/xlink" xmlns:svgjs="http://svgjs.com/svgjs" x="0" y="0" viewBox="0 0 61 52" style="enable-background:new 0 0 512 512" xml:space="preserve"><g><g fill="#000" fill-rule="nonzero"><path d="M52 15.317V7a1 1 0 0 1 2 0 3 3 0 0 0 6 0 6.993 6.993 0 0 0-13-3.587A6.993 6.993 0 0 0 34 7v6.275a20.4 20.4 0 0 0-3.97 2.01 10.756 10.756 0 0 1-8.774 1.291 16.005 16.005 0 1 0 .062 30.824 10.614 10.614 0 0 1 8.712 1.323A19.72 19.72 0 0 0 40.953 52c.799 0 1.597-.047 2.391-.139A19.983 19.983 0 0 0 52 15.317zM37 24a3 3 0 0 0 2.816-2h6.368a2.986 2.986 0 0 0 5.279.706 13.875 13.875 0 0 1 3.453 10.866 14.02 14.02 0 0 1-12.25 12.335c-.553.063-1.11.094-1.666.093a13.875 13.875 0 0 1-7.671-2.3A16.72 16.72 0 0 0 19.7 41.627a10.2 10.2 0 0 1-4.022.291 10 10 0 1 1 3.972-19.565 16.825 16.825 0 0 0 13.682-2.059c.217-.144.444-.27.668-.4V21a3 3 0 0 0 3 3zm3-4v-2h6v2zm6-4h-6v-2h6zm0-4h-6V7a1 1 0 0 1 2 0 3 3 0 0 0 3 3c.341-.003.68-.066 1-.184zm7-10a5.006 5.006 0 0 1 5 5 1 1 0 0 1-2 0 3 3 0 0 0-6 0v14a1 1 0 0 1-2 0V7a5.006 5.006 0 0 1 5-5zM41 2a5.006 5.006 0 0 1 5 5 1 1 0 0 1-2 0 3 3 0 0 0-6 0v14a1 1 0 0 1-2 0V7a5.006 5.006 0 0 1 5-5zm17.9 32a18.032 18.032 0 0 1-15.78 15.874 17.835 17.835 0 0 1-11.985-2.822 12.633 12.633 0 0 0-10.353-1.577A13.973 13.973 0 0 1 3.084 33.516a13.879 13.879 0 0 1 3.51-10.877A14 14 0 0 1 20.726 18.5a12.748 12.748 0 0 0 10.4-1.547A18.485 18.485 0 0 1 34 15.426v2.208a15.1 15.1 0 0 0-1.768.989 14.783 14.783 0 0 1-12.045 1.8 12.005 12.005 0 1 0-4.76 23.477c1.61.203 3.245.085 4.809-.348a14.713 14.713 0 0 1 11.993 1.821A15.877 15.877 0 0 0 41 48a16.47 16.47 0 0 0 1.9-.106 16.033 16.033 0 0 0 14-14.107A15.854 15.854 0 0 0 52 20.396V17.77A17.913 17.913 0 0 1 58.9 34z" fill="#000000" data-original="#000000"/><path d="M29 34a2.113 2.113 0 0 1-1.588-.748 4.022 4.022 0 0 0-5.832 0 2.055 2.055 0 0 1-3.171 0 4.013 4.013 0 0 0-5.826 0A2.1 2.1 0 0 1 11 34a1 1 0 0 0 0 2 4.046 4.046 0 0 0 2.913-1.253 2.052 2.052 0 0 1 3.167 0 4.016 4.016 0 0 0 5.828 0 2.06 2.06 0 0 1 3.176 0A4.052 4.052 0 0 0 29 36a1 1 0 0 0 0-2zM31.992 28a2.1 2.1 0 0 1-1.583-.747 4.013 4.013 0 0 0-5.826 0A2.1 2.1 0 0 1 23 28a1 1 0 0 0 0 2 4.046 4.046 0 0 0 2.913-1.253 2.052 2.052 0 0 1 3.167 0 4.016 4.016 0 0 0 5.828 0 2.06 2.06 0 0 1 3.176 0A4.052 4.052 0 0 0 41 30a1 1 0 0 0 0-2 2.113 2.113 0 0 1-1.588-.748 4.022 4.022 0 0 0-5.832 0c-.396.468-.975.74-1.588.748zM38.495 32a4.042 4.042 0 0 0-2.912 1.253A2.1 2.1 0 0 1 34 34a1 1 0 0 0 0 2 4.046 4.046 0 0 0 2.913-1.253 2.052 2.052 0 0 1 3.167 0 4.016 4.016 0 0 0 5.828 0 2.06 2.06 0 0 1 3.176 0A4.052 4.052 0 0 0 52 36a1 1 0 0 0 0-2 2.113 2.113 0 0 1-1.588-.748 4.022 4.022 0 0 0-5.832 0 2.055 2.055 0 0 1-3.171 0A4.049 4.049 0 0 0 38.495 32z" fill="#000000" data-original="#000000"/></g></g></svg>