<svg xmlns="http://www.w3.org/2000/svg" version="1.1" xmlns:xlink="http://www.w3.org/1999/xlink" xmlns:svgjs="http://svgjs.com/svgjs" x="0" y="0" viewBox="0 0 512 512" style="enable-background:new 0 0 512 512" xml:space="preserve"><g><path d="M120 336a32 32 0 1 0 32 32 32.036 32.036 0 0 0-32-32zm0 48a16 16 0 1 1 16-16 16.019 16.019 0 0 1-16 16zM392 336a32 32 0 1 0 32 32 32.036 32.036 0 0 0-32-32zm0 48a16 16 0 1 1 16-16 16.019 16.019 0 0 1-16 16zM168 344h176v16H168zM168 376h176v16H168z" fill="currentColor" data-original="#000000"/><path d="M480 160h-24V72a56.063 56.063 0 0 0-56-56H112a56.063 56.063 0 0 0-56 56v32h192v192h-63.637L216 260.847V280h16v-80h-16v36.93L162.837 296H72V120H56v40H32a16.019 16.019 0 0 0-16 16v80a16.019 16.019 0 0 0 16 16h24v136a24.039 24.039 0 0 0 16 22.624V480a16.019 16.019 0 0 0 16 16h48a16.019 16.019 0 0 0 16-16v-48h272v48h-48v-32h-16v32a16.019 16.019 0 0 0 16 16h48a16.019 16.019 0 0 0 16-16v-49.376A24.039 24.039 0 0 0 456 408V272h24a16.019 16.019 0 0 0 16-16v-80a16.019 16.019 0 0 0-16-16zM72 72a40.045 40.045 0 0 1 40-40h288a40.045 40.045 0 0 1 40 40v16H72zm192 32h176v192h-90.837L296 236.93V200h-16v80h16v-19.153L327.637 296H264zM32 256v-80h24v80zm104 224H88v-48h48zm296-64H80a8.009 8.009 0 0 1-8-8v-96h76.437l-2.383 2.648 11.892 10.7L169.963 312h172.074l12.017 13.352 11.892-10.7-2.383-2.652H440v96a8.009 8.009 0 0 1-8 8zm48-160h-24v-80h24l.01 80z" fill="currentColor" data-original="#000000"/><path d="M248 48h16v16h-16zM280 48h16v16h-16zM216 48h16v16h-16zM104 48h16v16h-16zM392 48h16v16h-16z" fill="currentColor" data-original="#000000"/></g></svg>